<svg width="34" height="33" viewBox="0 0 34 33" fill="none" xmlns="http://www.w3.org/2000/svg">
<path d="M0 15.698C0.0663269 15.2336 0.12989 14.7665 0.198981 14.3021C0.649451 11.2492 1.89861 8.54533 3.85801 6.16844C6.13247 3.40959 9.02046 1.55479 12.4695 0.595786C14.556 0.015988 16.684 -0.124153 18.8424 0.103919C22.7861 0.518846 26.1604 2.14008 28.9627 4.89343C31.602 7.48466 33.2353 10.6255 33.7908 14.2911C34.2578 17.366 33.9538 20.3666 32.7683 23.2491C31.6296 26.019 29.8554 28.3354 27.5008 30.2067C26.0001 31.3993 24.3254 32.2676 22.518 32.8968C21.7414 33.1661 21.2246 32.8117 21.2191 31.99C21.2108 30.6601 21.2108 29.3274 21.2191 27.9974C21.2246 26.6839 21.1583 25.3952 20.0971 24.3812C20.7907 24.2548 21.4457 24.1696 22.0813 24.0103C23.8279 23.5761 25.3894 22.815 26.4506 21.2981C27.2465 20.1633 27.5975 18.8608 27.7495 17.5033C27.8628 16.4619 27.8905 15.4232 27.6445 14.39C27.4151 13.42 26.9868 12.5517 26.3373 11.796C26.1549 11.5845 26.1079 11.4168 26.2019 11.1311C26.6496 9.77363 26.4589 8.44092 25.9504 7.13843C25.92 7.05874 25.7708 6.9873 25.6713 6.97631C25.0937 6.90761 24.5437 7.05325 24.0352 7.29506C23.1702 7.70724 22.3328 8.16888 21.4733 8.5948C21.3296 8.66624 21.1334 8.71295 20.9869 8.67448C18.9805 8.15514 16.952 8.04797 14.9014 8.30902C14.2907 8.38596 13.6855 8.5316 13.0857 8.66899C12.8564 8.7212 12.674 8.70746 12.4695 8.57281C11.4055 7.86661 10.2613 7.33353 9.0177 7.02027C9.00664 7.02027 8.99835 7.01203 8.9873 7.00928C8.22177 6.83892 8.05043 6.94333 7.83487 7.67426C7.47836 8.89706 7.42032 10.1144 7.84592 11.3344C7.87632 11.4251 7.81828 11.5872 7.74919 11.6696C6.98091 12.5572 6.44753 13.5657 6.29 14.7253C5.96389 17.1241 6.26789 19.4214 7.67458 21.4713C8.40417 22.5347 9.47646 23.1969 10.6703 23.6146C11.5381 23.9168 12.4584 24.068 13.3593 24.2823C13.5196 24.3208 13.6827 24.3345 13.8015 24.351C13.5528 24.8044 13.293 25.255 13.0553 25.7194C12.9724 25.8816 12.9144 26.0739 12.9061 26.2553C12.8923 26.5768 12.7182 26.7142 12.4363 26.7938C11.3419 27.1016 10.2558 27.294 9.20286 26.6565C8.68053 26.3405 8.28534 25.9008 7.98134 25.3815C7.48389 24.5324 6.79298 23.9004 5.83677 23.6201C5.50237 23.5212 5.12375 23.5431 4.76725 23.5624C4.52957 23.5761 4.43838 23.752 4.60972 23.9581C4.76448 24.1422 4.91648 24.3538 5.11546 24.4692C5.99706 24.9748 6.49727 25.7799 6.90352 26.6592C7.15225 27.1978 7.36229 27.7501 7.82105 28.1678C8.5313 28.8108 9.39355 29.0553 10.3138 29.0993C11.1153 29.1378 11.9195 29.0911 12.7596 29.0828C12.7596 29.0828 12.779 29.168 12.7817 29.2532C12.7928 30.1765 12.8094 31.1025 12.8094 32.0258C12.8094 32.7869 12.2705 33.1744 11.5381 32.9243C8.99559 32.0642 6.75982 30.7041 4.89161 28.7778C3.11184 26.9422 1.75214 24.8429 0.911995 22.422C0.469816 21.1498 0.204508 19.8418 0.0773814 18.5036C0.0635633 18.3634 0.0331635 18.2233 0.00829086 18.0831C0.00829086 17.2918 0.00829086 16.4976 0.00829086 15.7062L0 15.698Z" fill="black"/>
</svg>
