<svg width="34" height="34" viewBox="0 0 34 34" fill="none" xmlns="http://www.w3.org/2000/svg">
<path d="M32.0063 34H1.98198C0.31278 33.3804 -0.00891933 32.0927 0.000185372 30.4527C0.0487438 21.2382 0.0244646 12.0268 0.0244646 2.81233C0.0244646 1.01742 1.02295 0 2.79836 0C12.2703 0 21.7422 0 31.2141 0C31.4751 0 31.7422 0.0303707 32.0002 0.0820009C33.1049 0.309781 33.6451 1.10853 34.0002 2.0895V31.868C33.6997 32.9188 32.9744 33.5718 32.0063 33.9939V34ZM18.1185 14.5233C18.1185 14.1072 18.0973 13.6881 18.1246 13.272C18.1519 12.8498 18.0154 12.6767 17.5692 12.6858C16.2855 12.7101 15.0017 12.7071 13.7179 12.6858C13.3022 12.6798 13.1717 12.8468 13.1808 13.2325C13.1929 13.8308 13.1808 14.4291 13.1808 15.0274C13.1808 19.3674 13.1808 23.7104 13.1808 28.0504C13.1808 29.0101 13.1808 29.0101 14.1034 29.0101C15.2536 29.0101 16.4069 28.9828 17.5571 29.0222C18.155 29.0435 18.3613 28.8734 18.3553 28.2448C18.3219 25.7422 18.3189 23.2397 18.3522 20.7371C18.3613 20.0143 18.4494 19.2702 18.6466 18.5778C18.9956 17.3508 19.9729 16.795 21.4418 16.8436C22.683 16.8861 23.3689 17.4297 23.6542 18.7235C23.7999 19.3887 23.8606 20.0811 23.8667 20.7645C23.8909 23.2883 23.8909 25.8151 23.8667 28.3389C23.8606 28.8613 24.0184 29.0314 24.5434 29.0192C25.8272 28.9888 27.111 28.9949 28.3947 29.0162C28.8287 29.0222 29.0472 28.9099 29.0412 28.43C29.0047 25.0406 29.029 21.6513 28.938 18.2649C28.8985 16.7768 28.5859 15.2886 27.5844 14.1042C26.0336 12.2698 23.9334 12.0845 21.7544 12.3943C20.3006 12.6008 19.1231 13.3813 18.1185 14.5202V14.5233ZM10.0791 12.701C8.44935 12.701 6.8621 12.6889 5.27788 12.7253C5.16862 12.7253 4.97439 13.0685 4.97439 13.2538C4.95618 18.3044 4.96528 23.3551 4.95618 28.4057C4.95618 28.8582 5.11399 29.0283 5.5753 29.0192C6.83782 28.9949 8.10034 28.9797 9.35982 29.0253C9.97287 29.0465 10.1398 28.8491 10.1368 28.2417C10.1125 23.3034 10.1246 18.3621 10.1216 13.4239C10.1216 13.2082 10.0973 12.9926 10.0821 12.7041L10.0791 12.701ZM7.53888 10.5295C9.22022 10.5295 10.5252 9.26003 10.5252 7.62608C10.5252 5.94355 9.21111 4.6042 7.55709 4.60116C5.90307 4.60116 4.59503 5.89799 4.59806 7.53801C4.6011 9.29647 5.81506 10.5295 7.53888 10.5295Z" fill="#2E70A9"/>
</svg>
