<svg width="12" height="12" viewBox="0 0 12 12" fill="none" xmlns="http://www.w3.org/2000/svg">
<path d="M11.4896 8.32426C11.4896 8.9963 10.9592 9.54615 10.2993 9.54615C9.29689 9.54615 8.4198 8.11246 6.1018 6.27963C6.69487 8.9352 7.19606 9.72943 7.19606 10.4015C7.19606 11.1346 6.82017 11.6845 5.94309 11.6845C5.12865 11.6845 4.66087 11.1346 4.66087 10.3404C4.66087 9.72943 5.09941 8.75192 5.75514 6.27963C3.43713 8.07988 2.56005 9.54615 1.55766 9.54615C0.868527 9.54615 0.367336 8.9963 0.367336 8.32426C0.367336 7.80699 0.651345 7.37933 1.27366 7.16346C1.80826 6.95167 2.74799 6.91909 5.65908 6.06376C2.77723 5.29805 1.64955 5.29805 1.11912 5.02516C0.584519 4.71969 0.304688 4.35312 0.304688 3.86436C0.304688 3.16381 0.805878 2.67506 1.52425 2.67506C2.52663 2.67506 3.43295 4.05172 5.81361 5.88455C5.12447 3.1964 4.65669 2.21888 4.65669 1.54685C4.65669 0.781129 5.12447 0.235352 5.93891 0.235352C6.81599 0.235352 7.19189 0.785202 7.19189 1.51834C7.19189 2.25147 6.66146 3.0457 6.03497 5.88455C8.38221 4.05172 9.29271 2.67506 10.3243 2.67506C11.0135 2.67506 11.5439 3.16381 11.5439 3.86436C11.5439 4.35312 11.2641 4.71969 10.7295 5.02516C10.199 5.29805 9.07135 5.29805 6.15609 6.06376C9.06717 6.7969 10.0403 6.9476 10.5707 7.16346C11.1638 7.37933 11.4771 7.80699 11.4771 8.32426H11.4896Z" fill="#B74E36"/>
</svg>
