<svg width="13" height="14" viewBox="0 0 13 14" fill="none" xmlns="http://www.w3.org/2000/svg">
<path d="M12.9372 9.89114C12.9372 10.7129 12.3237 11.3853 11.5604 11.3853C10.401 11.3853 9.38647 9.63216 6.70531 7.39096C7.3913 10.6382 7.97101 11.6094 7.97101 12.4312C7.97101 13.3276 7.53623 14 6.52174 14C5.57971 14 5.03865 13.3276 5.03865 12.3565C5.03865 11.6094 5.54589 10.4141 6.30435 7.39096C3.62319 9.59232 2.6087 11.3853 1.44928 11.3853C0.652174 11.3853 0.0724638 10.7129 0.0724638 9.89114C0.0724638 9.25863 0.400966 8.73568 1.12077 8.47172C1.73913 8.21274 2.82609 8.17289 6.19324 7.127C2.8599 6.19068 1.55556 6.19068 0.942029 5.85699C0.323672 5.48346 0 5.03522 0 4.43757C0 3.58093 0.57971 2.98328 1.41063 2.98328C2.57005 2.98328 3.61836 4.66667 6.37198 6.90786C5.57488 3.62078 5.03382 2.42547 5.03382 1.6037C5.03382 0.667378 5.57488 0 6.51691 0C7.5314 0 7.96618 0.672359 7.96618 1.56884C7.96618 2.46531 7.35266 3.4365 6.62802 6.90786C9.34299 4.66667 10.3961 2.98328 11.5894 2.98328C12.3865 2.98328 13 3.58093 13 4.43757C13 5.03522 12.6763 5.48346 12.058 5.85699C11.4444 6.19068 10.1401 6.19068 6.76812 7.127C10.1353 8.02348 11.2609 8.20776 11.8744 8.47172C12.5604 8.73568 12.9227 9.25863 12.9227 9.89114H12.9372Z" fill="#0B1B47"/>
</svg>
