<svg width="20" height="21" viewBox="0 0 20 21" fill="none" xmlns="http://www.w3.org/2000/svg">

<path d="M20 10.5C20 16.299 15.5228 21 10 21C4.47715 21 0 16.299 0 10.5C0 4.70101 4.47715 0 10 0C15.5228 0 20 4.70101 20 10.5Z" fill="#C1C55E"/>
<path d="M16.9324 13.5977C16.9324 14.4781 16.2716 15.1985 15.4496 15.1985C14.201 15.1985 13.1085 13.3202 10.2211 10.9189C10.9599 14.3981 11.5842 15.4386 11.5842 16.3191C11.5842 17.2796 11.1159 18 10.0234 18C9.00892 18 8.42624 17.2796 8.42624 16.2391C8.42624 15.4386 8.9725 14.158 9.7893 10.9189C6.9019 13.2775 5.80936 15.1985 4.56076 15.1985C3.70234 15.1985 3.07804 14.4781 3.07804 13.5977C3.07804 12.92 3.43181 12.3597 4.20699 12.0768C4.87291 11.7994 6.04348 11.7567 9.66964 10.6361C6.0799 9.63287 4.67521 9.63287 4.01449 9.27535C3.34857 8.87513 3 8.39488 3 7.75454C3 6.83671 3.6243 6.19637 4.51914 6.19637C5.76774 6.19637 6.89669 8 9.86213 10.4013C9.00372 6.8794 8.42103 5.59872 8.42103 4.71825C8.42103 3.71505 9.00372 3 10.0182 3C11.1107 3 11.579 3.72038 11.579 4.6809C11.579 5.64141 10.9182 6.68196 10.1379 10.4013C13.0617 8 14.1958 6.19637 15.4809 6.19637C16.3393 6.19637 17 6.83671 17 7.75454C17 8.39488 16.6514 8.87513 15.9855 9.27535C15.3248 9.63287 13.9201 9.63287 10.2887 10.6361C13.9149 11.5966 15.1271 11.794 15.7878 12.0768C16.5266 12.3597 16.9168 12.92 16.9168 13.5977H16.9324Z" fill="#0B1B47"/>
</svg>
