<svg width="8" height="8" viewBox="0 0 8 8" fill="none" xmlns="http://www.w3.org/2000/svg">
<path d="M7.96135 5.65208C7.96135 6.12167 7.5838 6.50587 7.11408 6.50587C6.40059 6.50587 5.77629 5.50409 4.12635 4.22341C4.54849 6.07898 4.90524 6.63394 4.90524 7.10352C4.90524 7.61579 4.63768 8 4.01338 8C3.43367 8 3.10071 7.61579 3.10071 7.06083C3.10071 6.63394 3.41286 5.95091 3.8796 4.22341C2.22965 5.48132 1.60535 6.50587 0.891862 6.50587C0.401338 6.50587 0.0445931 6.12167 0.0445931 5.65208C0.0445931 5.29064 0.246748 4.99182 0.689706 4.84098C1.07023 4.69299 1.73913 4.67022 3.81122 4.07257C1.75994 3.53753 0.957265 3.53753 0.57971 3.34685C0.199182 3.1334 0 2.87727 0 2.53575C0 2.04625 0.356745 1.70473 0.868079 1.70473C1.58157 1.70473 2.22668 2.66667 3.92122 3.94735C3.43069 2.06901 3.09773 1.38598 3.09773 0.9164C3.09773 0.381359 3.43069 0 4.01041 0C4.63471 0 4.90227 0.384205 4.90227 0.896478C4.90227 1.40875 4.52471 1.96371 4.07878 3.94735C5.74954 2.66667 6.39762 1.70473 7.13192 1.70473C7.62244 1.70473 8 2.04625 8 2.53575C8 2.87727 7.80082 3.1334 7.42029 3.34685C7.04274 3.53753 6.24006 3.53753 4.16499 4.07257C6.23709 4.58484 6.92977 4.69015 7.30732 4.84098C7.72947 4.99182 7.95243 5.29064 7.95243 5.65208H7.96135Z" fill="#5A4D3C"/>
</svg>
